<svg width="128" height="128" viewBox="0 0 128 128" xmlns="http://www.w3.org/2000/svg">
  <!-- Background circle -->
  <circle cx="64" cy="64" r="60" fill="#1da1f2" stroke="#0d8bd9" stroke-width="4"/>
  
  <!-- Robot head -->
  <rect x="40" y="35" width="48" height="40" rx="8" fill="white"/>
  
  <!-- Robot eyes -->
  <circle cx="52" cy="50" r="4" fill="#1da1f2"/>
  <circle cx="76" cy="50" r="4" fill="#1da1f2"/>
  
  <!-- Robot mouth -->
  <rect x="50" y="62" width="28" height="3" rx="2" fill="#1da1f2"/>
  
  <!-- Robot antenna -->
  <line x1="58" y1="35" x2="58" y2="25" stroke="white" stroke-width="3" stroke-linecap="round"/>
  <line x1="70" y1="35" x2="70" y2="25" stroke="white" stroke-width="3" stroke-linecap="round"/>
  <circle cx="58" cy="25" r="3" fill="white"/>
  <circle cx="70" cy="25" r="3" fill="white"/>
  
  <!-- Twitter bird silhouette -->
  <path d="M85 85 Q90 80 95 85 Q90 90 85 85 Q80 88 75 85 Q80 82 85 85" fill="white" opacity="0.8"/>
  
  <!-- Speech bubble -->
  <ellipse cx="95" cy="45" rx="18" ry="12" fill="white" opacity="0.9"/>
  <path d="M85 52 L90 57 L95 52" fill="white" opacity="0.9"/>
  
  <!-- AI text in bubble -->
  <text x="95" y="49" text-anchor="middle" font-family="Arial, sans-serif" font-size="10" font-weight="bold" fill="#1da1f2">AI</text>
</svg> 